<?xml version="1.0" standalone="no"?>
<!DOCTYPE svg PUBLIC "-//W3C//DTD SVG 20010904//EN"
 "http://www.w3.org/TR/2001/REC-SVG-20010904/DTD/svg10.dtd">
<svg version="1.0" xmlns="http://www.w3.org/2000/svg"
 width="600.000000pt" height="600.000000pt" viewBox="0 0 600.000000 600.000000"
 preserveAspectRatio="xMidYMid meet">

<g transform="translate(0.000000,600.000000) scale(0.100000,-0.100000)"
fill="#2563EB" stroke="none">
<path d="M2810 4989 c-119 -13 -281 -44 -378 -73 -655 -197 -1164 -710 -1351
-1366 -199 -698 -8 -1442 504 -1956 316 -317 706 -511 1160 -575 116 -16 383
-16 505 0 585 78 1090 391 1411 875 473 711 444 1633 -72 2318 -87 116 -275
301 -396 391 -265 196 -564 320 -898 373 -116 18 -376 25 -485 13z m243 -593
c43 -18 83 -66 91 -110 9 -50 -23 -121 -64 -144 l-32 -17 6 -69 c3 -38 9 -73
14 -78 4 -4 36 -13 70 -19 36 -7 84 -25 115 -43 44 -26 76 -36 168 -50 227
-35 371 -98 485 -211 67 -67 112 -141 162 -267 7 -17 30 -37 62 -53 104 -53
146 -166 138 -368 -8 -177 -45 -255 -141 -301 -47 -22 -55 -30 -66 -68 -40
-135 -159 -283 -281 -351 -74 -40 -340 -147 -710 -284 -140 -51 -265 -98 -277
-103 -16 -7 -27 -5 -42 8 -18 15 -21 30 -23 132 l-3 115 -115 16 c-374 53
-581 195 -665 457 -15 48 -21 54 -71 78 -107 51 -151 165 -141 369 9 180 41
248 141 301 38 20 57 36 61 54 3 14 24 63 47 109 97 202 288 319 597 367 92
14 124 24 168 50 35 21 79 37 123 44 l68 11 7 57 c3 31 8 65 11 74 3 11 -6 23
-26 35 -102 60 -93 212 15 259 39 17 68 17 108 0z"/>
<path d="M2760 3614 c-98 -9 -254 -36 -303 -53 -162 -56 -228 -128 -273 -296
-26 -98 -27 -430 -1 -523 28 -104 57 -159 107 -206 109 -102 264 -141 615
-152 409 -14 695 40 809 151 84 83 126 238 126 465 0 212 -39 368 -114 457
-52 61 -194 118 -361 143 -71 11 -522 21 -605 14z m-80 -459 c42 -21 63 -86
58 -174 -4 -78 -24 -116 -73 -140 -43 -21 -102 2 -126 49 -26 47 -26 171 -1
220 28 56 85 75 142 45z m740 2 c40 -20 60 -72 60 -157 0 -96 -21 -139 -77
-159 -33 -12 -43 -12 -68 0 -54 27 -70 61 -70 152 0 48 6 96 14 115 23 54 86
77 141 49z"/>
</g>
</svg>
